# xmcd
# Track frame offsets:
# 150
# 12315
# 29020
# 48255
# 62567
# 82135
# 95867
# 111530
# 123770
# 141352
#
# Disc length: 2076 seconds
# Revision: 3
# Processed by: cddbd v1.4PL0 Copyright (c) Steve Scherf et al.
# Submitted via: VisiTrax 2.9.5.181 - For more info visit www.synapsa.com
#
DISCID=90081a0a
DTITLE=Marcia Ball - Gatorhythms
DYEAR=1989
DGENRE=
TTITLE0=How You Carry On
TTITLE1=La Ti Da
TTITLE2=The Power Of Love
TTITLE3=Mobile
TTITLE4=Find Another Fool
TTITLE5=Mama's Cooking
TTITLE6=What's A Girl To Do
TTITLE7=Daddy Said
TTITLE8=You'll Come Around
TTITLE9=Red Hot
EXTD=Rounder RCD-3101\n\nMarcia Ball:  vocals, piano, accordion and orga
EXTD=n\nRodney Craig:  drums, cowbell and triangle\nStephen Bruton:  electr
EXTD=ic, acoustic and slide guitars\nDerek O'Brien:  guitar\nJames Hinkle
EXTD=:  rhythm guitar\nJesse Taylor:  guitar\nMark Kazanoff:  tenor and bar
EXTD=itone saxophones\nKeith Winking:  trumpet\nJohn blondell:  trombone\nA
EXTD=ngela Strehli:  background vocals\nLou Ann Barton:  background vocal
EXTD=s\n\nProduced by Marcia Ball and Steve Tillisch\nRecorded and mixed b
EXTD=y Steve Tillisch
EXTT0=
EXTT1=
EXTT2=
EXTT3=
EXTT4=
EXTT5=
EXTT6=
EXTT7=
EXTT8=
EXTT9=
PLAYORDER=
